<svg width="150" height="150" viewBox="0 0 150 150" fill="none" xmlns="http://www.w3.org/2000/svg">
<path fill-rule="evenodd" clip-rule="evenodd" d="M54.049 4.69107C48.9394 7.27112 44.6634 9.481 44.5465 9.602C44.4299 9.72269 44.9175 11.224 45.6303 12.938C46.7881 15.7217 47.0024 16.0457 47.6408 15.975C48.1539 15.9182 65.6427 7.26489 66.4319 6.67733C66.4831 6.63897 65.8084 5.12113 64.9324 3.30389L63.3394 0L54.049 4.69107ZM59.0702 15.6394C55.2539 17.5751 52.4015 19.2034 52.4015 19.4454C52.4015 19.7972 66.2736 49.1483 66.6006 49.4885C66.6941 49.5862 79.6299 43.182 79.8934 42.9079C80.1775 42.6126 77.9983 37.8276 70.3627 21.9796C68.2967 17.6915 66.4112 13.7495 66.1726 13.2196L65.7389 12.2563L59.0702 15.6394ZM49.8476 30.5596C45.166 32.2112 41.1243 34.1907 34.7182 37.9692C26.5299 42.7987 21.9814 46.2897 16.5577 51.908C9.37044 59.3534 5.07879 66.5254 2.08791 76.0881C0.520983 81.0982 0.224562 83.0277 0.0441322 89.3823C-0.249291 99.733 0.896829 107.348 4.19222 116.942C5.54485 120.88 9.27094 129.787 10.7479 132.614L11.6849 134.407H6.71704H1.74923V142.203V150H39.3638H76.9783V142.203V134.407H65.4245H53.8704L50.064 131.218C41.6383 124.16 34.8362 115.967 31.3098 108.627C26.0009 97.5781 24.8805 84.5035 28.3141 73.6705C31.7827 62.7269 39.5595 53.1059 50.4257 46.315C52.1671 45.2269 54.5463 43.9467 55.7131 43.4705C58.2792 42.4229 58.2813 42.6322 55.6465 37.261C54.6368 35.2026 53.4568 32.6628 53.0249 31.6171L52.239 29.7157L49.8476 30.5596ZM83.8718 46.03C83.2949 46.2897 79.127 48.4226 74.6097 50.7697C69.334 53.511 66.1936 55.3213 65.8297 55.8316C65.2654 56.6228 65.2675 56.6352 66.3398 59.2621C66.9321 60.7119 70.4783 68.2135 74.2206 75.9322C80.1041 88.0674 81.1351 90.0057 81.8421 90.2577C82.5444 90.5084 83.306 90.2268 87.2371 88.2655C98.3227 82.7336 100.272 81.6904 101.354 80.7121L102.502 79.6745L101.857 78.1152C100.619 75.1198 87.0752 47.0451 86.5033 46.2885C85.8428 45.4147 85.3461 45.366 83.8718 46.03ZM108.947 50.1254C108.611 51.768 107.578 53.0513 106.053 53.7215C104.319 54.484 104.389 55.0522 106.328 55.9625C107.228 56.3845 107.772 56.9565 108.433 58.1755C108.924 59.0799 109.454 59.9026 109.612 60.0043C109.77 60.1057 110.065 59.6613 110.268 59.0163C110.873 57.0971 111.484 56.3885 113.229 55.5858C115.068 54.7397 115.099 54.8439 112.52 53.2506C111.256 52.4693 110.667 51.6229 110.128 49.8135C109.878 48.973 109.144 49.167 108.947 50.1254ZM121.187 60.1874C118.549 60.3015 116.166 60.498 115.892 60.6243C115.617 60.7503 115.023 61.4395 114.571 62.1555C114.12 62.8716 112.211 65.4541 110.329 67.8942L106.908 72.3304L107.714 73.4298C108.157 74.0342 108.619 74.5288 108.739 74.5288C108.86 74.5288 113.229 79.2261 118.447 84.9669C123.666 90.708 128.18 95.5407 128.477 95.7063C128.938 95.9632 130.57 94.267 139.509 84.2409L150 72.4739L145.628 66.4063L141.256 60.3389L138.714 60.1359C135.589 59.8864 127.595 59.9098 121.187 60.1874ZM119.514 63.6915C119.658 64.0776 120.265 65.5075 120.864 66.8691L121.954 69.3453L123.552 67.0618C124.431 65.8059 125.379 64.3757 125.658 63.8839L126.166 62.9898H122.71H119.253L119.514 63.6915ZM132.028 64.5357C132.487 65.3858 133.368 66.8173 133.985 67.717L135.108 69.3524L136.464 66.332C137.21 64.671 137.821 63.2393 137.821 63.1507C137.821 63.0621 136.33 62.9898 134.507 62.9898H131.193L132.028 64.5357ZM115.624 66.1655C114.432 67.6715 112.645 70.3361 112.645 70.6086C112.645 70.8422 116.008 70.7876 117.802 70.5251L119.213 70.3186L117.952 67.5689L116.691 64.8189L115.624 66.1655ZM127.685 66.207C127.138 66.9342 126.284 68.2622 125.787 69.1578L124.884 70.7864H128.672C130.756 70.7864 132.408 70.681 132.343 70.5525C131.638 69.1625 129.005 64.8638 128.864 64.8728C128.763 64.8794 128.232 65.4797 127.685 66.207ZM139.855 66.3423C139.447 66.9857 138.83 68.1783 138.484 68.9932L137.855 70.4745H141.152C143.707 70.4745 144.401 70.3866 144.233 70.0847C143.488 68.7465 141.005 65.1728 140.821 65.1728C140.698 65.1728 140.264 65.6993 139.855 66.3423ZM139.658 73.8866L136.849 74.061L134.655 80.758C133.448 84.4414 132.487 87.4808 132.518 87.512C132.55 87.5435 133.925 85.948 135.573 83.9664C137.222 81.9851 139.45 79.3667 140.525 78.148C141.6 76.9292 142.854 75.406 143.312 74.7627L144.146 73.5932L143.306 73.6527C142.844 73.6858 141.203 73.7909 139.658 73.8866ZM114.493 75.7401C122.587 85.0305 125.095 87.8285 125.164 87.6467C125.269 87.3701 122.884 79.7843 121.652 76.4779L120.694 73.905H116.794H112.894L114.493 75.7401ZM124.172 74.4508C124.283 74.7511 125.242 77.5673 126.303 80.7093C127.364 83.851 128.403 86.7607 128.611 87.1749C128.959 87.8653 129.152 87.382 130.933 81.3399C132.001 77.7167 132.919 74.5615 132.972 74.3286C133.051 73.9858 132.2 73.905 128.52 73.905C124.309 73.905 123.985 73.9459 124.172 74.4508ZM98.1084 87.9973C95.9654 89.1543 92.5262 90.8932 90.4656 91.8616C88.4051 92.8299 86.6715 93.6679 86.613 93.7237C86.5162 93.8164 88.5849 100.581 88.8714 101.109C88.9394 101.234 92.899 99.3045 97.6705 96.8212L106.346 92.3054L104.604 89.7325C103.646 88.3172 102.669 86.8746 102.434 86.5265C102.014 85.9068 101.923 85.9374 98.1084 87.9973ZM127.481 105.83C124.487 107.292 87.8919 126.994 86.9604 127.645C85.3506 128.77 84.9949 130.214 85.8605 132.112C86.4692 133.447 87.8188 134.225 89.0734 133.964C90.21 133.727 131.164 111.822 131.924 111.044C133.344 109.591 132.684 106.522 130.746 105.564C129.491 104.945 129.252 104.964 127.481 105.83Z" fill="white"/>
</svg>
