<svg width="150" height="150" viewBox="0 0 150 150" fill="none" xmlns="http://www.w3.org/2000/svg">
<path fill-rule="evenodd" clip-rule="evenodd" d="M23.6036 0.036684C23.507 0.133519 23.4281 0.570935 23.4281 1.00805C23.4281 2.5025 21.9958 7.33187 20.9231 9.45379C19.4999 12.2695 17.4935 14.9444 12.3168 20.9274C5.66882 28.6108 3.30856 32.0543 1.64492 36.497C0.0809189 40.6732 -0.395394 45.642 0.334832 50.1651C0.917093 53.7728 3.33677 60.5286 3.85841 60.004C3.94545 59.9168 4.33382 58.6133 4.72189 57.1077C5.75495 53.0997 7.24542 49.4221 9.96374 44.1756C13.6083 37.1404 16.2227 33.5973 17.769 33.5973C19.7262 33.5973 19.7466 35.537 17.8173 38.1646C16.1231 40.472 13.3844 45.0576 11.7558 48.3126C8.05338 55.7143 5.70423 67.498 5.69913 78.6937C5.69343 91.7082 9.40729 104.421 16.6555 116.195C19.2217 120.364 21.6266 123.294 26.8265 128.587C33.3115 135.187 37.7234 138.524 44.414 141.889C57.3699 148.403 66.0309 150.321 80.8575 149.958C87.5556 149.794 89.5554 149.523 95.7871 147.934C104.694 145.664 114.069 141.037 121.917 135.04C132.637 126.849 141.589 114.445 145.926 101.774C148.99 92.8204 150.572 80.5646 149.81 71.6794C148.787 59.743 144.416 47.2426 137.848 37.4695C133.631 31.1937 126.882 23.8701 121.705 19.9521C116.055 15.6763 108.461 11.6366 101.229 9.06072C95.173 6.90351 90.0602 5.86879 82.2351 5.21659C78.5681 4.911 77.7232 4.92005 76.9915 5.2727C75.8189 5.83802 75.3227 6.87877 75.7033 7.97593C76.1988 9.40402 76.6559 9.5636 81.0028 9.82303C89.1343 10.309 95.384 11.5971 101.913 14.1332C113.136 18.4932 123.189 25.8047 130.336 34.804C138.081 44.5584 143.326 56.6353 144.832 68.1852C145.688 74.7455 145.272 85.7038 143.917 92.2952C142.24 100.457 137.678 110.699 132.853 117.135L131.626 118.771L131.549 100.167L131.472 81.5622H118.9C107.714 81.5622 106.309 81.6147 106.147 82.0395C106.047 82.3019 105.965 95.3698 105.965 111.079V139.642L104.389 140.236C103.523 140.562 102.712 140.877 102.588 140.935C102.464 140.993 102.363 124.196 102.363 103.609V66.1773H77.9024H53.4415V103.616C53.4415 139.145 53.4148 141.045 52.9162 140.861C52.6272 140.755 51.8267 140.438 51.1373 140.156L49.8837 139.644L50.059 117.912C50.2228 97.5831 50.2006 96.1463 49.7153 95.6585C49.2402 95.1807 48.1231 95.1372 36.3491 95.1372C24.7697 95.1372 23.4608 95.1864 23.0895 95.6356C22.7654 96.028 22.6459 98.3044 22.5276 106.335L22.3776 116.537L20.7926 114.158C16.5991 107.865 12.7949 97.9596 11.079 88.8665C10.5166 85.8872 10.4091 84.2447 10.392 78.3948C10.3719 71.3683 10.7081 67.8597 11.9176 62.468C12.3384 60.5922 12.4837 60.3494 13.626 59.6106C17.1907 57.3053 22.5261 52.9085 26.1578 49.284C34.343 41.1143 38.4297 32.8432 38.5284 24.2475C38.5746 20.2281 37.9452 17.5306 36.0298 13.5365C33.8028 8.8933 30.8984 5.61268 24.2789 0.26414C24.0037 0.042114 23.7 -0.0604525 23.6036 0.036684ZM47.0387 56.7252C46.9286 56.8356 46.8385 58.1931 46.8385 59.7418V62.5573H77.7523H108.666V59.5406V56.524H77.9525C61.0598 56.524 47.1486 56.6145 47.0387 56.7252ZM105.965 75.5289V77.9423H120.822H135.678V75.5289V73.1156H120.822H105.965V75.5289ZM62.2054 81.6226C61.6955 82.1351 61.7588 83.5439 62.3167 84.105C62.6298 84.4193 63.3369 84.5789 64.4177 84.5789H66.0471V89.964C66.0471 96.1249 66.2509 97.0938 67.6027 97.3656C68.8209 97.6103 82.9209 97.6033 86.3854 97.3563L89.1079 97.162L89.4329 95.8651C89.6115 95.152 89.7577 92.3209 89.7577 89.5736V84.5789H91.4985C93.4751 84.5789 93.9596 84.2522 93.9596 82.9197C93.9596 82.4054 93.7975 81.8217 93.5994 81.6226C93.0802 81.1007 62.7246 81.1007 62.2054 81.6226ZM69.9488 89.2547V93.9306H72.9502H75.9515V89.2547V84.5789H72.9502H69.9488V89.2547ZM79.8533 89.2547V93.9306H83.0047H86.1561V89.2547V84.5789H83.0047H79.8533V89.2547ZM19.2262 89.1039V91.8189H34.3724H49.5187L49.8666 91.1655C50.2147 90.5118 50.0983 87.3551 49.7024 86.7111C49.5661 86.4897 44.776 86.3889 34.3652 86.3889H19.2262V89.1039ZM113.394 87.4924C113.105 87.5735 112.767 88.0031 112.643 88.4472C112.335 89.5513 112.357 100.154 112.668 100.467C112.805 100.605 115.456 100.765 118.559 100.821C125.731 100.952 125.174 101.521 125.174 94.072C125.174 89.84 125.078 88.4846 124.748 88.0303C124.358 87.4933 123.892 87.4405 119.121 87.395C116.26 87.3675 113.682 87.4112 113.394 87.4924ZM115.869 94.2322V97.2489H118.721H121.572V94.2322V91.2156H118.721H115.869V94.2322ZM30.2276 102.326C29.7999 102.8 29.7315 103.714 29.7354 108.887C29.7381 112.192 29.8419 115.057 29.9668 115.254C30.0913 115.452 30.5706 115.757 31.0319 115.933C32.0965 116.34 41.5844 116.357 42.3344 115.953C43.251 115.46 43.6004 112.964 43.4884 107.704C43.354 101.373 43.8363 101.774 36.347 101.774C31.2811 101.774 30.6751 101.828 30.2276 102.326ZM33.7076 105.292C33.4381 105.401 33.3325 106.415 33.3325 108.888V112.332H36.4839H39.6353V108.712V105.092L36.8591 105.116C35.332 105.129 33.9141 105.208 33.7076 105.292ZM113.776 106.391C112.861 106.707 112.702 106.918 112.481 108.109C112.195 109.656 112.379 118.879 112.703 119.206C112.821 119.325 115.457 119.466 118.562 119.52C125.734 119.645 125.175 120.214 125.169 112.793C125.166 109.802 125.062 107.194 124.938 106.997C124.813 106.799 124.334 106.494 123.872 106.318C122.734 105.883 115.088 105.938 113.776 106.391ZM115.869 113.086V116.254H118.721H121.572V113.086V109.919H118.721H115.869V113.086ZM67.2605 112.71C66.8551 112.92 66.4295 113.429 66.3151 113.843C66.2005 114.257 66.0936 121.338 66.0771 129.579L66.0471 144.562L66.8725 144.727C67.3263 144.817 68.2045 144.979 68.8233 145.086L69.9488 145.281V130.767V116.254H78.0525H86.1561V130.74V145.225L86.8314 145.086C87.2029 145.01 88.0166 144.864 88.64 144.763L89.7733 144.58L89.6905 129.07C89.6133 114.651 89.5698 113.522 89.0719 113.021C88.5821 112.529 87.6634 112.476 78.2671 112.406C70.4564 112.347 67.8215 112.42 67.2605 112.71Z" fill="white"/>
</svg>
