<svg width="800" height="238" viewBox="0 0 800 238" fill="none" xmlns="http://www.w3.org/2000/svg">
<path d="M770.37 237.037H29.6296C13.037 237.037 0 224 0 207.407V29.6296C0 13.037 13.037 0 29.6296 0H770.37C786.963 0 800 13.037 800 29.6296V207.407C800 224 786.963 237.037 770.37 237.037Z" fill="black"/>
<path d="M770.37 4.74074C784 4.74074 795.259 16 795.259 29.6296V207.407C795.259 221.037 784 232.296 770.37 232.296H29.6296C16 232.296 4.74074 221.037 4.74074 207.407V29.6296C4.74074 16 16 4.74074 29.6296 4.74074H770.37ZM770.37 0H29.6296C13.037 0 0 13.6296 0 29.6296V207.407C0 224 13.037 237.037 29.6296 237.037H770.37C786.963 237.037 800 224 800 207.407V29.6296C800 13.6296 786.963 0 770.37 0Z" fill="#A6A6A6"/>
<path d="M280.89 60.4442C280.89 65.185 279.704 69.3331 276.741 72.2961C273.186 75.8516 269.038 77.6294 263.704 77.6294C258.371 77.6294 254.223 75.8516 250.667 72.2961C247.112 68.7405 245.334 64.5924 245.334 59.259C245.334 53.9257 247.112 49.7776 250.667 46.222C254.223 42.6665 258.371 40.8887 263.704 40.8887C266.075 40.8887 268.445 41.4813 270.815 42.6664C273.186 43.8516 274.964 45.0368 276.149 46.8146L273.186 49.7776C270.815 46.8146 267.852 45.6294 263.704 45.6294C260.149 45.6294 256.593 46.8146 254.223 49.7776C251.26 52.1479 250.075 55.7035 250.075 59.8516C250.075 63.9998 251.26 67.5553 254.223 69.9257C257.186 72.2961 260.149 74.0739 263.704 74.0739C267.852 74.0739 270.815 72.8887 273.778 69.9257C275.556 68.1479 276.741 65.7776 276.741 62.8146H263.704V58.0739H280.89V60.4442ZM308.149 45.6294H292.149V56.8887H306.964V61.0368H292.149V72.2961H308.149V77.0368H287.408V41.4813H308.149V45.6294ZM327.704 77.0368H322.964V45.6294H312.89V41.4813H337.778V45.6294H327.704V77.0368ZM354.964 77.0368V41.4813H359.704V77.0368H354.964ZM379.852 77.0368H375.112V45.6294H365.038V41.4813H389.334V45.6294H379.26V77.0368H379.852ZM436.149 72.2961C432.593 75.8516 428.445 77.6294 423.112 77.6294C417.778 77.6294 413.63 75.8516 410.075 72.2961C406.519 68.7405 404.741 64.5924 404.741 59.259C404.741 53.9257 406.519 49.7776 410.075 46.222C413.63 42.6665 417.778 40.8887 423.112 40.8887C428.445 40.8887 432.593 42.6665 436.149 46.222C439.704 49.7776 441.482 53.9257 441.482 59.259C441.482 64.5924 439.704 68.7405 436.149 72.2961ZM413.63 69.3331C416.001 71.7035 419.556 73.4813 423.112 73.4813C426.667 73.4813 430.223 72.2961 432.593 69.3331C434.964 66.9627 436.741 63.4072 436.741 59.259C436.741 55.1109 435.556 51.5553 432.593 49.185C430.223 46.8146 426.667 45.0368 423.112 45.0368C419.556 45.0368 416.001 46.222 413.63 49.185C411.26 51.5553 409.482 55.1109 409.482 59.259C409.482 63.4072 410.667 66.9627 413.63 69.3331ZM448.001 77.0368V41.4813H453.334L470.519 69.3331V41.4813H475.26V77.0368H470.519L452.149 47.9998V77.0368H448.001Z" fill="white" stroke="white" stroke-width="1.18519" stroke-miterlimit="10"/>
<path d="M403.555 129.185C389.332 129.185 378.073 139.852 378.073 154.667C378.073 168.889 389.332 180.148 403.555 180.148C417.777 180.148 429.036 169.482 429.036 154.667C429.036 139.259 417.777 129.185 403.555 129.185ZM403.555 169.482C395.851 169.482 389.332 162.963 389.332 154.074C389.332 145.185 395.851 138.667 403.555 138.667C411.258 138.667 417.777 144.593 417.777 154.074C417.777 162.963 411.258 169.482 403.555 169.482ZM348.444 129.185C334.221 129.185 322.962 139.852 322.962 154.667C322.962 168.889 334.221 180.148 348.444 180.148C362.666 180.148 373.925 169.482 373.925 154.667C373.925 139.259 362.666 129.185 348.444 129.185ZM348.444 169.482C340.74 169.482 334.221 162.963 334.221 154.074C334.221 145.185 340.74 138.667 348.444 138.667C356.147 138.667 362.666 144.593 362.666 154.074C362.666 162.963 356.147 169.482 348.444 169.482ZM282.666 136.889V147.556H308.147C307.555 153.482 305.184 158.222 302.221 161.185C298.666 164.741 292.74 168.889 282.666 168.889C266.666 168.889 254.814 156.445 254.814 140.445C254.814 124.445 267.258 112 282.666 112C290.962 112 297.481 115.556 302.221 119.704L309.925 112C303.407 106.074 295.11 101.333 283.258 101.333C261.925 101.333 243.555 119.111 243.555 140.445C243.555 161.778 261.925 179.556 283.258 179.556C295.11 179.556 303.407 176 310.518 168.296C317.629 161.185 319.999 151.111 319.999 143.408C319.999 141.037 319.999 138.667 319.407 136.889H282.666ZM551.703 145.185C549.332 139.259 543.407 129.185 530.37 129.185C517.332 129.185 506.666 139.259 506.666 154.667C506.666 168.889 517.332 180.148 531.555 180.148C542.814 180.148 549.925 173.037 552.295 168.889L543.999 162.963C541.036 167.111 537.481 170.074 531.555 170.074C525.629 170.074 522.073 167.704 519.11 162.371L552.888 148.148L551.703 145.185ZM517.332 153.482C517.332 144 525.036 138.667 530.37 138.667C534.518 138.667 538.666 141.037 539.851 144L517.332 153.482ZM489.481 177.778H500.74V103.704H489.481V177.778ZM471.703 134.519C468.74 131.556 463.999 128.593 458.073 128.593C445.629 128.593 433.777 139.852 433.777 154.074C433.777 168.296 445.036 178.963 458.073 178.963C463.999 178.963 468.74 176 471.11 173.037H471.703V176.593C471.703 186.074 466.37 191.408 458.073 191.408C451.555 191.408 446.814 186.667 445.629 182.519L436.147 186.667C439.11 193.185 446.221 201.482 458.666 201.482C471.703 201.482 482.37 193.778 482.37 175.408V130.371H471.703V134.519ZM458.666 169.482C450.962 169.482 444.444 162.963 444.444 154.074C444.444 145.185 450.962 138.667 458.666 138.667C466.37 138.667 472.295 145.185 472.295 154.074C472.295 162.963 466.37 169.482 458.666 169.482ZM603.258 103.704H576.592V177.778H587.851V149.926H603.258C615.703 149.926 627.555 141.037 627.555 126.815C627.555 112.593 615.703 103.704 603.258 103.704ZM603.851 139.259H587.851V113.778H603.851C612.147 113.778 616.888 120.889 616.888 126.222C616.295 132.741 611.555 139.259 603.851 139.259ZM671.999 128.593C663.703 128.593 655.407 132.148 652.444 139.852L662.518 144C664.888 139.852 668.444 138.667 672.592 138.667C678.518 138.667 683.851 142.222 684.444 148.148V148.741C682.666 147.556 677.925 145.778 673.184 145.778C662.518 145.778 651.851 151.704 651.851 162.371C651.851 172.445 660.74 178.963 670.221 178.963C677.925 178.963 681.481 175.408 684.444 171.852H685.036V177.778H695.703V149.333C694.518 136.296 684.444 128.593 671.999 128.593ZM670.814 169.482C667.258 169.482 661.925 167.704 661.925 162.963C661.925 157.037 668.444 155.259 673.777 155.259C678.518 155.259 680.888 156.445 683.851 157.63C682.666 164.741 676.74 169.482 670.814 169.482ZM733.036 130.371L720.592 162.371H719.999L706.962 130.371H695.11L714.666 175.408L703.407 200.296H714.666L744.888 130.371H733.036ZM633.481 177.778H644.74V103.704H633.481V177.778Z" fill="white"/>
<path d="M61.6301 44.4443C59.8524 46.2221 59.2598 49.1851 59.2598 52.7406V183.704C59.2598 187.259 60.445 190.222 62.2227 192L62.8153 192.592L136.297 119.111V117.926L61.6301 44.4443Z" fill="url(#paint0_linear_5_45)"/>
<path d="M160.001 144L135.705 119.703V117.926L160.001 93.6294L160.594 94.222L189.631 110.815C197.927 115.555 197.927 123.259 189.631 128L160.001 144Z" fill="url(#paint1_linear_5_45)"/>
<path d="M160.594 143.407L135.705 118.519L61.6309 192.593C64.5938 195.556 68.742 195.556 74.0753 193.185L160.594 143.407Z" fill="url(#paint2_linear_5_45)"/>
<path d="M160.594 93.6293L74.0753 44.4441C68.742 41.4811 64.5938 42.0737 61.6309 45.0367L135.705 118.518L160.594 93.6293Z" fill="url(#paint3_linear_5_45)"/>
<path opacity="0.2" d="M160.001 142.814L74.0753 191.407C69.3346 194.37 65.1864 193.777 62.2235 191.407L61.6309 192L62.2235 192.592C65.1864 194.963 69.3346 195.555 74.0753 192.592L160.001 142.814Z" fill="black"/>
<path opacity="0.12" d="M61.6301 191.407C59.8524 189.63 59.2598 186.667 59.2598 183.111V183.704C59.2598 187.259 60.445 190.222 62.2227 192V191.407H61.6301ZM189.63 126.222L160.001 142.815L160.593 143.407L189.63 126.815C193.778 124.444 195.556 121.482 195.556 118.519C195.556 121.482 193.186 123.852 189.63 126.222Z" fill="black"/>
<path opacity="0.25" d="M74.0746 45.0368L189.63 110.815C193.186 113.185 195.556 115.555 195.556 118.518C195.556 115.555 193.778 112.592 189.63 110.222L74.0746 44.4442C65.7783 39.7035 59.2598 43.2591 59.2598 52.7405V53.3331C59.2598 44.4442 65.7783 40.2961 74.0746 45.0368Z" fill="white"/>
<defs>
<linearGradient id="paint0_linear_5_45" x1="129.186" y1="51.6147" x2="29.7309" y2="151.064" gradientUnits="userSpaceOnUse">
<stop stop-color="#00A0FF"/>
<stop offset="0.007" stop-color="#00A1FF"/>
<stop offset="0.26" stop-color="#00BEFF"/>
<stop offset="0.512" stop-color="#00D2FF"/>
<stop offset="0.76" stop-color="#00DFFF"/>
<stop offset="1" stop-color="#00E3FF"/>
</linearGradient>
<linearGradient id="paint1_linear_5_45" x1="200.499" y1="118.524" x2="57.1095" y2="118.524" gradientUnits="userSpaceOnUse">
<stop stop-color="#FFE000"/>
<stop offset="0.409" stop-color="#FFBD00"/>
<stop offset="0.775" stop-color="#FFA500"/>
<stop offset="1" stop-color="#FF9C00"/>
</linearGradient>
<linearGradient id="paint2_linear_5_45" x1="147.124" y1="132.124" x2="12.262" y2="266.987" gradientUnits="userSpaceOnUse">
<stop stop-color="#FF3A44"/>
<stop offset="1" stop-color="#C31162"/>
</linearGradient>
<linearGradient id="paint3_linear_5_45" x1="43.2427" y1="1.04262" x2="103.468" y2="61.2678" gradientUnits="userSpaceOnUse">
<stop stop-color="#32A071"/>
<stop offset="0.069" stop-color="#2DA771"/>
<stop offset="0.476" stop-color="#15CF74"/>
<stop offset="0.801" stop-color="#06E775"/>
<stop offset="1" stop-color="#00F076"/>
</linearGradient>
</defs>
</svg>
