<svg width="150" height="150" viewBox="0 0 150 150" fill="none" xmlns="http://www.w3.org/2000/svg">
<path fill-rule="evenodd" clip-rule="evenodd" d="M70.1982 0.114525L66.9187 0.304517L66.0759 3.33091C65.6122 4.99549 65.169 6.42257 65.0909 6.50225C65.013 6.58192 63.147 7.03177 60.9445 7.50216C58.742 7.97224 56.1958 8.64824 55.2863 9.00402C54.3767 9.35948 53.4714 9.6506 53.2744 9.6506C53.0775 9.65091 52.3333 8.87562 51.6207 7.9278C48.8265 4.21131 49.0956 4.4252 47.8342 4.91826C47.2196 5.15851 44.1785 6.63187 41.0761 8.19256L35.4356 11.0299L35.6109 12.3577C35.7075 13.0882 35.9793 14.2432 36.2153 14.9244C36.823 16.6803 36.765 17.8371 36.0493 18.2275C34.8671 18.8726 29.2413 23.6028 27.7024 25.2456L26.1275 26.9273L24.5453 26.286C23.6751 25.9329 22.3365 25.4383 21.5707 25.1864L20.1779 24.7283L18.8104 26.6126C18.0584 27.649 16.1596 30.0702 14.591 31.9931C11.3259 35.9952 11.377 35.5968 13.6805 39.0954L15.0564 41.1856L13.5542 43.8811C10.8027 48.8193 7.65125 58.2334 7.01652 63.4113C6.90767 64.2973 6.70561 65.2089 6.5673 65.4372C6.41365 65.6903 5.18357 65.9983 3.41136 66.2275C1.81414 66.4338 0.440633 66.6703 0.359449 66.7534C0.0945493 67.0233 -0.131262 77.4925 0.089137 79.2895C0.328779 81.2446 0.186858 81.1526 4.20455 81.9619L5.89197 82.3021L6.37426 84.2048C6.63976 85.2513 7.0069 87.1843 7.19061 88.5001C7.65516 91.8287 8.83774 96.6649 9.77917 99.0864C11.2669 102.913 13.5302 107.167 14.8345 108.589L16.1377 110.01L14.3636 112.401C13.3879 113.717 12.5914 115.096 12.5935 115.466C12.5956 115.851 13.9544 117.904 15.7783 120.275C20.5986 126.543 20.5592 126.505 21.9937 126.309C22.6585 126.218 24.0134 125.71 25.005 125.181L26.8079 124.218L28.0425 125.43C29.1069 126.476 35.6296 131.485 37.0939 132.381C37.5551 132.664 37.523 132.968 36.6994 136.1L35.8025 139.512L39.3054 141.209C43.3932 143.19 48.5925 145.411 49.082 145.386C49.2697 145.376 50.2908 144.263 51.3516 142.911C52.6526 141.254 53.435 140.502 53.757 140.599C57.0453 141.593 60.2207 142.344 62.4434 142.654L65.1624 143.032L66.1481 146.516L67.1334 150H73.8169H80.5001L81.1304 148.283C81.4771 147.339 81.9756 145.778 82.2384 144.815L82.7162 143.064L85.6439 142.692C87.254 142.487 89.8191 141.979 91.3445 141.563C92.8695 141.147 94.2888 140.807 94.498 140.807C94.7076 140.807 95.7224 141.916 96.7537 143.272C98.3335 145.349 98.7313 145.706 99.2831 145.541C100.534 145.167 106.869 142.267 109.506 140.862L112.159 139.449L111.962 137.6C111.853 136.583 111.572 135.071 111.338 134.239C111.104 133.408 110.912 132.68 110.912 132.622C110.912 132.564 112.497 131.467 114.434 130.186C116.371 128.904 118.712 127.12 119.636 126.222L121.317 124.588L123.256 125.391C125.518 126.328 127.689 126.599 128.371 126.03C128.818 125.658 134.531 118.58 136.235 116.286L137.036 115.209L135.422 112.621C134.534 111.197 133.891 109.89 133.993 109.715C134.095 109.54 134.698 108.616 135.333 107.662C136.622 105.723 139.21 100.258 140.606 96.5264C141.608 93.8447 142.56 89.5114 143.107 85.137L143.458 82.3281L146.273 81.7876C147.821 81.4903 149.258 81.1404 149.465 81.0098C149.976 80.6878 150.226 69.8202 149.734 69.3186C149.55 69.131 149.399 68.1946 149.399 67.2375C149.399 66.2128 149.245 65.3722 149.023 65.1927C148.817 65.0247 147.971 64.794 147.144 64.68C143.738 64.2102 143.686 64.1897 143.686 63.3164C143.686 62.8696 143.078 60.0234 142.335 56.9918L140.984 51.4798L141.959 50.5936C144.805 48.0082 145.49 47.2565 145.49 46.7221C145.49 45.8555 136.874 28.4494 136.342 28.2413C136.092 28.1436 135.117 28.3339 134.175 28.6642C133.233 28.9943 132.427 29.2281 132.383 29.1836C131.807 28.5968 128.924 23.6828 128.171 22.0059C126.947 19.2789 125.067 17.6275 122.137 16.7051C119.003 15.7187 116.599 15.9871 114.807 17.5239L113.873 18.3253L112.468 17.7167C111.589 17.3361 111.1 16.9454 111.163 16.6739C111.219 16.4349 111.581 15.0329 111.968 13.558C112.472 11.6412 112.569 10.8767 112.307 10.8767C112.106 10.8767 109.714 9.75816 106.992 8.39114C102.407 6.08825 99.2662 4.74788 98.4571 4.74788C98.2737 4.74788 97.6891 5.47169 97.1581 6.35669C96.6274 7.24138 95.953 8.27132 95.6599 8.64487L95.1265 9.32424L92.5707 8.55937C91.165 8.13894 88.4047 7.52514 86.4368 7.19572C84.4688 6.8663 82.8136 6.55066 82.7586 6.49459C82.7032 6.43851 82.2669 5.05126 81.7889 3.41242C81.3108 1.77359 80.8453 0.356612 80.7542 0.264068C80.4947 -0.000389341 73.8172 -0.095079 70.1982 0.114525ZM66.3137 14.8775C53.7333 16.3677 40.4621 23.0748 31.657 32.3933C25.2266 39.1981 21.8073 44.7397 18.7767 53.2664C15.8887 61.3934 14.8186 68.0704 15.0856 76.3014C15.3219 83.5799 16.19 88.6656 18.3555 95.4538C21.4774 105.24 28.6827 115.642 36.5749 121.757C44.5264 127.917 52.0344 131.702 60.3978 133.766C65.9689 135.142 68.7387 135.447 75.2815 135.409C80.5458 135.378 81.7789 135.271 85.1769 134.555C92.9017 132.924 99.2957 130.373 105.882 126.292C110.173 123.633 112.216 122.009 116.14 118.14C128.062 106.386 133.651 95.0717 135.294 79.3658C135.718 75.3055 135.497 68.4167 134.794 63.8192C134.294 60.5446 133.988 60.008 133.613 61.7468C133.505 62.249 132.966 63.0933 132.415 63.6231L131.413 64.5859L131.58 71.0751C131.805 79.797 131.158 84.894 128.949 91.7944C125.349 103.039 116.281 115.011 106.024 122.063C95.7353 129.138 81.8349 132.949 69.7911 131.999C62.4091 131.417 57.1448 129.787 48.972 125.554C40.6991 121.27 36.939 118.257 31.7237 111.734C25.932 104.49 24.2064 101.331 21.4937 93.0023C19.4006 86.576 18.8781 83.1053 18.8666 75.5509C18.8474 63.1092 21.2616 54.0441 27.1988 44.262C35.5905 30.4364 48.4455 21.7381 65.0584 18.6446C68.7937 17.949 79.1444 17.8564 82.6482 18.4871C89.2298 19.6718 92.1416 20.6858 100.005 24.5322L105.185 27.0655L106.096 25.8027L107.008 24.5399L106.179 23.8357C104.972 22.8106 96.7267 18.731 93.9451 17.7826C90.391 16.5703 85.9235 15.5247 82.1067 15.0111C78.4991 14.5257 69.8978 14.4531 66.3137 14.8775ZM117.677 20.7342C116.093 21.3357 115.194 22.1781 114.396 23.8093C113.322 26.0065 113.373 27.4942 114.596 29.5719C116.565 32.9194 120.028 34.0192 123.002 32.2425C123.766 31.7865 124.686 30.9257 125.048 30.3297C125.675 29.2958 126.233 26.8115 125.838 26.8115C125.735 26.8115 125.007 27.315 124.22 27.9306C123.433 28.5462 122.197 29.3185 121.474 29.6473C120.175 30.2372 120.148 30.2372 119.369 29.6556C117.467 28.2355 116.938 25.2483 118.351 23.9126C118.804 23.4845 119.286 23.1342 119.422 23.1342C119.558 23.1342 120.418 22.7732 121.333 22.332C122.843 21.6039 122.954 21.4853 122.526 21.0498C121.941 20.4526 118.935 20.2571 117.677 20.7342ZM63.7168 26.7343C61.5422 26.7965 60.1913 26.9629 60.0566 27.185C59.939 27.3787 59.6774 28.9599 59.4754 30.6984C59.1317 33.654 59.064 33.8596 58.4359 33.8596C58.0664 33.8596 56.8498 34.3284 55.7322 34.9018L53.7005 35.944L51.2238 33.2979L48.7471 30.6515L46.3185 33.0604C44.9826 34.3851 43.5128 36.0234 43.0519 36.7009L42.2142 37.9328L44.4915 40.1097L46.7686 42.2867L45.9396 43.5124C45.4838 44.1866 44.8692 45.4623 44.5736 46.347L44.0366 47.9558H40.9594C38.827 47.9558 37.8083 48.0735 37.6408 48.3388C37.5082 48.5497 37.4156 50.7717 37.4358 53.2771C37.4634 56.7748 37.5678 57.8939 37.8847 58.0986C38.112 58.2454 39.5956 58.3674 41.1819 58.3701L44.0658 58.3747L44.628 60.2667C44.9371 61.3073 45.5066 62.5423 45.8936 63.0108L46.5972 63.863L44.4771 66.1932C43.3111 67.475 42.3576 68.619 42.3585 68.7351C42.3594 68.8516 43.8153 70.5186 45.5938 72.4397L48.8271 75.9328L51.3377 73.5257L53.8481 71.1189L54.7929 71.6785C55.3121 71.9864 56.4749 72.4994 57.376 72.8187C59.3064 73.5027 59.476 73.7175 59.5202 75.5353C59.5385 76.2937 59.7105 77.6038 59.9023 78.4465L60.2511 79.9787L64.4805 80.0633L68.7102 80.1481L69.0641 78.1894C69.2589 77.1122 69.4183 75.5978 69.4183 74.8244C69.4183 73.4408 69.4366 73.4147 70.5458 73.2088C71.9124 72.9554 74.0671 71.9665 74.5527 71.3702C74.8461 71.0101 75.2175 71.2804 76.7101 72.9404C77.7017 74.0436 78.908 75.1541 79.3906 75.4084C80.247 75.8598 80.3026 75.8405 81.6836 74.6218C83.0878 73.3829 86.5655 69.4488 86.548 69.1188C86.5432 69.0241 85.6093 67.8461 84.4727 66.5012L82.4062 64.0552L82.9507 62.9679C83.2502 62.3698 83.7174 61.1005 83.9892 60.1475L84.4836 58.4146H87.5051C89.1673 58.4146 90.6147 58.3254 90.7218 58.2166C90.8291 58.1075 90.9623 55.7544 91.018 52.9872L91.119 47.9558H87.6711H84.2229L83.8666 46.5002C83.6705 45.6995 83.1867 44.4523 82.7919 43.7282L82.0739 42.412L84.3278 40.2298C85.5675 39.0298 86.5423 37.8837 86.4942 37.683C86.4461 37.4823 85.0335 35.845 83.3554 34.0441L80.3038 30.7698L78.5445 32.2765C77.5766 33.1054 76.3995 34.2016 75.928 34.713L75.0714 35.6421L73.6293 34.9042C72.8364 34.4982 72.0718 34.1651 71.9304 34.1642C71.7891 34.1633 71.1661 34.0189 70.5458 33.8434C69.424 33.5259 69.4183 33.5164 69.4183 31.8984C69.4183 31.0039 69.3314 29.4245 69.2252 28.3887C69.0325 26.5093 69.0298 26.5051 68.0977 26.5706C67.5835 26.6065 65.6122 26.6803 63.7168 26.7343ZM110.762 28.5996C108.121 30.1057 104.172 32.8361 103.397 33.6904C102.718 34.4391 102.695 34.5454 103.156 34.8077C104.411 35.5239 105.486 36.7303 105.997 37.9981C106.303 38.7543 106.638 39.3737 106.743 39.3743C106.993 39.3758 113.824 34.7143 114.91 33.8008L115.751 33.0935L115.06 32.1322C114.681 31.6036 113.964 30.3974 113.468 29.4521C112.972 28.5064 112.498 27.7351 112.416 27.7376C112.333 27.74 111.589 28.128 110.762 28.5996ZM95.8201 34.9156C93.4036 35.8557 92.1557 37.3404 91.702 39.8152C91.3634 41.6621 91.7143 41.6385 94.1294 39.6516C97.2802 37.0591 98.2153 37.022 99.5937 39.4353C101.201 42.2499 100.788 43.346 97.5277 44.9159C95.0711 46.0988 94.6315 46.6117 95.7146 47.0313C98.7899 48.223 103.621 45.6348 104.135 42.5211C104.532 40.1125 102.717 36.3467 100.664 35.317C99.1673 34.5669 97.1467 34.3995 95.8201 34.9156ZM62.4476 36.9926C54.3731 37.9187 47.7221 45.1479 47.7353 52.9835C47.7431 57.5933 49.2525 61.322 52.5597 64.9013C56.541 69.2104 61.296 70.8449 66.9422 69.8453C73.933 68.6079 79.528 63.5116 80.8135 57.2106C81.582 53.4435 81.0339 49.0764 79.406 45.9958C78.3776 44.0499 75.243 40.6285 73.3608 39.3976C70.3834 37.4504 66.3011 36.5507 62.4476 36.9926ZM123.992 38.5306C123.496 38.7041 122.95 38.8803 122.78 38.9223C122.201 39.0642 121.271 41.1902 121.591 41.6416C122.595 43.0595 126.125 47.3429 126.288 47.3429C126.692 47.3429 128.35 45.1574 128.544 44.3714C128.752 43.528 128.223 42.2698 126.49 39.4849C125.618 38.0842 125.45 38.0201 123.992 38.5306ZM63.7655 39.1303C63.2321 39.674 63.3277 40.8458 63.9308 41.162C64.6014 41.5135 65.1336 41.3171 65.5235 40.5746C66.1601 39.362 64.7084 38.1694 63.7655 39.1303ZM54.2588 43.1088C53.834 44.5154 53.865 44.9147 54.4227 45.2187C54.7448 45.3946 55.2812 45.45 55.6149 45.3419C56.1032 45.184 56.2036 44.9266 56.1297 44.0226C56.0506 43.0525 55.9252 42.8864 55.2093 42.8024C54.7162 42.7445 54.3313 42.8686 54.2588 43.1088ZM62.8195 43.4116C59.1828 43.9393 56.2472 46.2863 54.9973 49.666C54.4414 51.1691 54.3482 51.926 54.4525 54.0846C54.6076 57.2936 55.4613 59.184 57.6686 61.2065C61.4965 64.714 68.5439 64.2899 72.119 60.3372C76.9792 54.9634 74.9231 46.2976 68.2155 43.8851C66.308 43.1989 65.0467 43.0883 62.8195 43.4116ZM63.2543 46.0804C60.8182 46.7227 58.3836 48.7112 57.6556 50.6531C57.137 52.0366 57.299 54.8565 57.9882 56.4445C58.7663 58.2374 59.2838 58.8439 60.983 59.9532C64.2724 62.1013 69.4417 60.3031 71.2461 56.3829C72.3517 53.9816 71.8616 50.6659 70.0894 48.5558C68.352 46.4873 65.5542 45.4739 63.2543 46.0804ZM104.496 49.161C101.452 49.3231 101.193 49.3875 100.587 50.1318C100.23 50.57 98.541 52.7445 96.8346 54.9637L93.7319 58.9986L99.6911 65.3517C102.969 68.846 107.08 73.2012 108.828 75.0303L112.006 78.3558L113.826 76.4093C119.562 70.2728 129.541 59.1053 129.474 58.8969C129.43 58.7627 127.841 56.5379 125.943 53.9531L122.49 49.2529L120.716 49.0642C118.686 48.8478 109.324 48.9036 104.496 49.161ZM129.329 50.6482C128.295 50.9114 127.45 51.231 127.45 51.3582C127.45 51.5653 128.651 51.8589 131.584 52.3676C132.122 52.4607 132.561 52.4672 132.561 52.3817C132.561 51.9346 131.656 50.1058 131.449 50.1352C131.316 50.1542 130.363 50.3849 129.329 50.6482ZM103.696 51.1461C103.696 51.3104 105.754 56.2109 105.978 56.5802C106.167 56.8915 106.481 56.5146 108.761 53.2419L110.309 51.0202H107.002C105.184 51.0202 103.696 51.0769 103.696 51.1461ZM114.4 52.3225C115.61 54.3199 117.318 56.8517 117.398 56.7659C117.437 56.7239 118.081 55.4139 118.83 53.8547L120.191 51.0202H116.901H113.611L114.4 52.3225ZM77.2311 52.1883C76.0432 53.1686 77.2047 54.7943 78.5463 54.0294C79.1227 53.7006 79.1994 52.5309 78.6792 52.0008C78.199 51.5114 78.024 51.5341 77.2311 52.1883ZM50.0334 52.523C49.8016 53.2676 50.332 54.391 50.9156 54.391C51.6799 54.391 52.2744 53.5115 52.0086 52.7733C51.6748 51.8463 50.2986 51.672 50.0334 52.523ZM100.966 53.2639C100.54 53.7996 99.6219 55.0309 98.9271 55.9998L97.6633 57.7618H100.976H104.288L103.69 56.2146C103.076 54.627 101.934 52.2285 101.811 52.268C101.772 52.2803 101.393 52.7283 100.966 53.2639ZM110.94 53.6513C110.376 54.4137 109.533 55.6508 109.067 56.3997L108.219 57.7618H111.849H115.48L114.652 56.3063C113.802 54.8111 112.134 52.2386 112.025 52.2554C111.992 52.2606 111.503 52.8888 110.94 53.6513ZM121.391 53.4368C120.746 54.3601 119.331 57.2519 119.331 57.6475C119.331 57.7104 120.752 57.7618 122.488 57.7618C124.225 57.7618 125.646 57.6852 125.646 57.5918C125.646 57.414 123.494 54.0971 122.652 52.9771C122.167 52.3308 122.163 52.332 121.391 53.4368ZM29.3357 60.069C28.6646 61.1419 28.265 61.4602 27.3813 61.6257C26.3485 61.8194 25.8352 62.1871 25.8241 62.7415C25.8217 62.8677 26.0198 62.9713 26.2646 62.9713C27.3669 62.9713 29.0868 63.9712 29.4277 64.8099C29.9903 66.1938 30.5733 66.1932 31.1173 64.8084C31.4997 63.8342 31.8091 63.5348 32.6904 63.2854C33.2939 63.1144 33.9569 62.9741 34.1635 62.9731C34.3703 62.9722 34.5372 62.8677 34.5348 62.7415C34.524 62.2034 34.0221 61.8289 33.0558 61.6368C31.9616 61.4195 30.9311 60.6601 30.9311 60.0712C30.9311 59.8769 30.7622 59.4932 30.5553 59.219C30.2242 58.7792 30.0793 58.8803 29.3357 60.069ZM121.628 59.8898L118.662 60.0601L116.594 66.1665C115.457 69.5248 114.568 72.3152 114.619 72.3673C114.67 72.4194 115.734 71.2574 116.984 69.785C118.233 68.3128 120.405 65.812 121.811 64.2274C124.568 61.1198 125.653 59.5591 124.986 59.6599C124.77 59.6924 123.259 59.796 121.628 59.8898ZM98.2836 60.084C98.2836 60.4775 109.253 72.4872 109.348 72.1976C109.463 71.8449 106.793 63.5934 105.841 61.3625L105.221 59.9069H101.752C99.8444 59.9069 98.2836 59.9866 98.2836 60.084ZM107.607 59.9835C107.613 60.2654 111.544 71.3435 111.833 71.893C112.153 72.5034 112.403 71.889 114.1 66.3195C115.149 62.8769 116.011 60.0255 116.015 59.9835C116.02 59.9415 114.129 59.9069 111.814 59.9069C109.499 59.9069 107.606 59.9415 107.607 59.9835ZM54.1551 61.7952C53.9504 62.0039 53.7829 62.489 53.7829 62.8735C53.7829 63.8177 55.2024 64.2283 55.7635 63.4463C56.572 62.3192 55.1119 60.8201 54.1551 61.7952ZM73.3987 61.7952C72.4789 62.7326 73.4308 64.6671 74.4799 63.9927C74.7869 63.7953 74.9809 63.2679 74.9809 62.6315C74.9809 61.824 74.8461 61.5727 74.3759 61.5041C74.0433 61.4553 73.6034 61.5865 73.3987 61.7952ZM63.5445 65.7467C63.2297 66.2655 63.653 67.4818 64.2264 67.7061C64.9965 68.0073 65.9054 66.7898 65.4944 66.0072C65.1654 65.3808 63.871 65.208 63.5445 65.7467ZM34.0282 71.3279C33.6694 72.3778 33.213 74.019 33.0134 74.9745C32.5996 76.955 32.7421 76.8708 28.7172 77.5103C25.9967 77.9424 25.0138 78.3984 25.773 78.8767C25.9925 79.0149 27.5473 79.3713 29.2281 79.6679C30.9089 79.9649 32.4385 80.3329 32.6267 80.4855C32.8149 80.6384 33.1276 81.414 33.3216 82.2095C33.5155 83.0051 33.8862 84.4076 34.1457 85.3266L34.6172 86.9971L35.1608 85.4799C35.4597 84.6451 35.9218 83.1816 36.1879 82.2273L36.6714 80.492L40.1254 79.6336C42.7858 78.9723 43.5588 78.6674 43.4906 78.3067C43.3865 77.7564 42.2325 77.4607 39.9925 77.4101C38.3468 77.3733 36.0427 76.3759 36.0427 75.7008C36.0427 74.2712 35.3373 70.0985 35.0445 69.7957C34.7579 69.4991 34.5411 69.8257 34.0282 71.3279ZM0.0834241 74.616C0.0834241 77.3969 0.129128 78.5347 0.184753 77.1441C0.240379 75.7538 0.240379 73.4782 0.184753 72.0879C0.129128 70.6975 0.0834241 71.8351 0.0834241 74.616ZM96.3358 71.2237C96.2345 71.5491 95.7359 72.0836 95.2281 72.4112L94.305 73.0072L95.2164 73.5557C95.7176 73.8575 96.2856 74.4579 96.4786 74.8896C96.8157 75.6435 96.8424 75.6508 97.1458 75.0689C97.3199 74.7355 97.7959 74.096 98.2039 73.6473L98.946 72.8322L98.1754 72.3177C97.7517 72.0348 97.3229 71.5396 97.2228 71.2179C96.9883 70.4653 96.5712 70.4683 96.3358 71.2237ZM124.371 72.3008L123.548 73.3124L124.611 74.4606C125.195 75.0922 125.701 75.558 125.736 75.4955C125.77 75.4333 126.11 74.9279 126.492 74.373L127.186 73.3642L126.34 72.3269C125.876 71.7563 125.428 71.2893 125.345 71.2893C125.262 71.2893 124.824 71.7447 124.371 72.3008ZM112.017 80.8612C108.82 82.2362 105.886 84.8725 98.1333 93.3363C96.1385 95.5142 95.7149 95.7995 90.0305 98.795C84.3522 101.787 83.9598 101.946 82.6638 101.771C79.7157 101.372 76.4548 98.8547 76.6971 97.1641C76.7982 96.4599 76.8138 96.4556 84.3353 95.1508C93.1074 93.629 95.2831 91.9994 95.2723 86.96C95.2675 84.6503 94.9139 83.7028 93.7205 82.8001C92.5229 81.8939 90.536 81.836 85.2013 82.5522C79.1375 83.3661 72.9449 83.7975 67.1632 83.8092C60.449 83.8226 58.7817 84.3031 50.5214 88.6031L45.3085 91.3169H33.8402C22.9688 91.3169 22.3666 91.346 22.2652 91.8774C22.0809 92.843 22.8335 94.2217 23.6604 94.4331C24.0847 94.5419 29.0402 94.6433 34.6722 94.6593C46.4727 94.692 47.0789 94.5998 51.3774 92.1152C58.0432 88.262 61.5774 87.3035 70.7713 86.8549C74.0788 86.6937 79.5587 86.2873 82.9489 85.9521C86.3391 85.6172 89.817 85.3426 90.6779 85.342C92.2408 85.3414 92.2429 85.3429 92.4486 86.4605C93.0364 89.6526 91.0561 90.7626 81.9034 92.3714C75.9223 93.4225 74.1901 94.0706 73.6218 95.4689C72.8259 97.427 74.0451 100.587 76.3832 102.627C78.9811 104.893 82.4215 105.499 85.9638 104.314C88.1765 103.574 96.6356 99.4961 97.9748 98.5241C98.4742 98.1615 100.175 96.2935 101.755 94.3727C105.213 90.1675 110.42 85.099 112.423 83.9878C114.888 82.6205 117.226 83.0596 117.226 84.89C117.226 85.7695 114.948 89.3153 110.931 94.6877C109.167 97.0473 107 100.051 106.116 101.363C104.235 104.155 103.546 104.74 98.7346 107.626C96.7501 108.816 93.4351 111.005 91.3679 112.49C89.3008 113.975 86.7299 115.645 85.655 116.2C83.9375 117.087 83.4134 117.209 81.3336 117.21C76.2816 117.212 67.4599 115.372 58.6464 112.477C55.7812 111.537 52.5338 110.634 51.43 110.471C50.3262 110.308 45.9958 110.172 41.8071 110.169L34.1908 110.163L34.4007 111.159C34.8998 113.529 35.0851 113.573 44.1761 113.504C51.5702 113.448 51.9358 113.51 59.3455 116.088C68.2531 119.187 71.6571 119.887 79.2313 120.172L84.3837 120.366L86.3932 119.408C87.4982 118.88 90.186 117.187 92.3659 115.643C94.5455 114.099 98.1558 111.763 100.388 110.45C102.621 109.138 104.853 107.81 105.35 107.499C105.863 107.178 107.421 105.154 108.963 102.803C110.455 100.531 113.201 96.6162 115.067 94.104C119.019 88.7821 119.792 87.5119 120.194 85.6797C121.119 81.4677 116.684 78.8543 112.017 80.8612Z" fill="white"/>
</svg>
