<svg width="150" height="160" viewBox="0 0 150 160" fill="none" xmlns="http://www.w3.org/2000/svg">
<path fill-rule="evenodd" clip-rule="evenodd" d="M64.6135 0.46111C50.7775 2.39943 37.9594 7.96903 28.4211 16.1873C25.5441 18.6664 19.7235 24.8265 17.8088 27.4196C15.7386 30.2227 12.5636 35.3742 11.0817 38.3344C9.93412 40.6269 8.72967 43.9374 8.9577 44.1731C9.00461 44.2219 9.91827 44.8462 10.9876 45.5607L12.932 46.8596L13.4462 45.4871C17.6209 34.346 26.2459 23.4206 36.3431 16.4837C45.088 10.4757 53.621 7.22113 64.9848 5.55963C68.9299 4.98288 77.3116 4.90774 81.5447 5.41159C93.8383 6.87431 105.97 12.1106 114.9 19.8083C117.643 22.1721 122.137 27.1916 124.861 30.9334C136.565 47.007 140.314 66.2171 135.441 85.141C132.706 95.7648 128.041 104.573 120.115 114.077C116.813 118.038 116.816 118.017 119.257 120.297L120.494 121.452L121.556 120.194C133.983 105.488 139.892 93.3513 141.965 78.277C142.552 74.0095 142.566 64.0755 141.992 60.0104C140.32 48.1852 134.594 34.7969 127.365 25.8105C123.266 20.7152 118.547 16.0495 113.954 12.5505C106.11 6.57535 94.4115 1.96013 83.2854 0.45244C78.8047 -0.154488 68.9768 -0.149993 64.6135 0.46111ZM72.4078 10.2606C71.9654 10.8039 71.6035 11.5949 71.6035 12.0184C71.6035 12.5332 71.3201 12.9407 70.7491 13.2474C70.2794 13.4998 69.5453 14.3023 69.1181 15.0309C68.691 15.7592 68.1796 16.6022 67.9814 16.9037C67.6698 17.3783 66.6934 17.4875 60.6808 17.7194C56.8637 17.8668 51.314 17.9082 48.3487 17.8112C45.0889 17.7046 42.7334 17.7589 42.3908 17.9483C42.0792 18.1208 41.6085 19.0209 41.3448 19.949C41.081 20.8767 39.9176 23.5282 38.7594 25.841C37.6013 28.1537 35.2557 32.9436 33.5471 36.4853C30.5498 42.6982 30.4041 42.9306 29.4031 43.1028C27.2577 43.4711 27.021 44.429 28.2993 47.569C31.1416 54.5493 36.5385 58.2073 43.9543 58.18C49.011 58.1613 52.1416 56.7326 55.6686 52.8335C57.3856 50.9357 59.5391 47.0777 59.924 45.2103C60.1626 44.0533 59.4953 43.2643 58.0768 43.026C56.8879 42.8263 56.8447 42.7678 54.7276 38.4917C53.548 36.109 51.538 32.162 50.2608 29.7205C47.7886 24.9948 46.129 21.6256 46.129 21.3327C46.129 21.2344 51.0133 21.1541 56.983 21.1541H67.8367L68.6953 22.7851C69.1862 23.7167 69.9476 24.6262 70.472 24.9065L71.39 25.3972L71.185 32.8293C71.0722 36.9169 70.8874 45.7408 70.7743 52.4382C70.5733 64.3536 70.5817 64.6102 71.1639 64.3607C71.491 64.2203 73.213 64.0312 74.99 63.9406L78.2212 63.7753L78.0013 54.4456C77.8804 49.314 77.654 42.8671 77.4983 40.1192C77.3424 37.3713 77.2106 32.8743 77.205 30.1258L77.1954 25.1284L78.1249 24.4181C78.636 24.0276 79.3381 23.1332 79.6845 22.4309L80.3148 21.1541H91.3381H102.361L97.8344 30.5471C95.3447 35.7133 92.9449 40.6985 92.5015 41.6259C91.8053 43.0809 91.5717 43.3118 90.7935 43.3118C88.6111 43.3118 88.1827 44.5266 89.3166 47.5003C90.6888 51.0988 94.0477 55.0512 97.086 56.6427C103.966 60.2464 113.476 58.126 118.212 51.9321C120.059 49.5169 121.299 46.8115 121.389 45.0032L121.465 43.4724L120.005 43.3751C118.814 43.2958 118.507 43.1477 118.339 42.5723C118.225 42.1844 116.655 39.1211 114.849 35.7654C113.042 32.4096 110.326 27.1351 108.813 24.0443C107.3 20.9534 105.832 18.2441 105.549 18.0232C105.162 17.7197 102.342 17.6208 93.9896 17.6182C87.9136 17.6163 82.4074 17.5232 81.7532 17.4114C80.8491 17.257 80.49 17.0074 80.2583 16.3713C79.8814 15.3369 78.1982 13.4763 77.3172 13.1202C76.8478 12.9304 76.6139 12.4815 76.4908 11.5332C76.2622 9.76991 75.7996 9.27248 74.3889 9.27248C73.456 9.27248 73.0453 9.47736 72.4078 10.2606ZM72.3664 16.7496C70.961 17.9994 71.3636 20.8317 73.0406 21.4907C74.3261 21.9958 75.3168 21.8407 76.1221 21.008C77.224 19.8693 77.1634 18.1815 75.9767 16.9548C74.8555 15.7958 73.5243 15.7204 72.3664 16.7496ZM40.9226 28.2944C37.8041 34.408 34.4766 41.3135 34.1889 42.2682L33.9711 42.9907H43.7714H53.5716L53.2044 42.1076C52.7638 41.0472 44.3222 24.7681 43.7934 23.9592C43.4728 23.4685 43.087 24.051 40.9226 28.2944ZM100.139 32.6376C97.6365 37.7136 95.4911 42.2055 95.3711 42.6198L95.1534 43.3728L104.968 43.2621C110.367 43.201 114.784 43.0247 114.785 42.87C114.788 42.089 105.123 23.3754 104.731 23.4052C104.708 23.4072 102.642 27.5616 100.139 32.6376ZM0.431827 46.2668C-0.13731 51.4167 -0.145698 64.0225 0.417537 67.878C1.94041 78.302 5.66559 88.5459 10.1966 94.7694C12.2902 97.6447 17.3009 102.691 20.0947 104.737C25.8718 108.969 30.8766 110.843 37.4304 111.23C42.8102 111.547 42.4402 111.379 44.3849 114.4C45.3293 115.867 47.7907 118.968 49.8551 121.291L53.6082 125.514L55.2274 124.363C56.1178 123.73 56.9267 123.078 57.0246 122.913C57.1228 122.749 55.6549 121.06 53.7629 119.159C48.1601 113.531 47.2449 112.75 45.7773 112.35C43.4874 111.726 40.378 108.098 34.9451 99.7118C32.7505 96.3242 32.1994 95.6653 31.6831 95.8117C31.3414 95.9087 29.4404 96.0789 27.4587 96.1894C24.5757 96.3506 23.3961 96.277 21.5561 95.8217C17.5351 94.8268 15.3574 93.5719 16.2173 92.745C16.3512 92.6165 17.7886 92.8538 19.4119 93.2729C25.0986 94.7401 28.5994 94.9823 30.3261 94.0269C30.8611 93.7312 30.6924 93.3721 28.3301 89.7823C26.911 87.6256 25.4273 85.2672 25.0336 84.5415L24.3173 83.222L22.1715 83.3806C19.5936 83.5714 16.1204 83.0348 13.1312 81.9837C9.44575 80.688 7.44103 79.1761 8.5063 78.4957C8.65915 78.398 10.1068 78.8129 11.7232 79.4176C15.3322 80.7679 18.7719 81.5258 21.2926 81.5258H23.1995L22.0895 80.0005C19.2761 76.1341 9.78562 61.1671 8.57278 58.6841C5.59973 52.5962 8.14717 54.8907 14.3334 63.8722C16.5811 67.1349 18.7865 70.3105 19.2345 70.9286C19.6828 71.5468 20.9049 73.4254 21.9503 75.1033C22.996 76.7812 24.3064 78.7696 24.8622 79.5223L25.8727 80.8906L26.6777 79.4709C27.9483 77.2298 28.4482 74.7102 28.6426 69.5639C28.7414 66.9586 28.9315 64.8273 29.0654 64.8273C29.5808 64.8273 30.2671 65.8561 30.4116 66.8446C30.8294 69.7097 30.8511 70.5417 30.574 73.1171C30.2074 76.5281 29.2848 79.6167 28.0825 81.4581C27.5851 82.2194 27.1785 82.9089 27.1785 82.9898C27.1785 83.1892 31.1404 89.1843 31.9602 90.2251L32.6151 91.0568L33.6331 90.2607C34.9811 89.2065 35.2206 89.5459 34.0693 90.8783L33.1491 91.9425L34.2368 93.7186C35.8239 96.3111 36.5068 97.0115 37.0184 96.5722C38.0455 95.6913 39.2816 91.702 40.0891 86.6638C40.3581 84.9859 40.6964 83.4885 40.8412 83.336C41.9443 82.1741 42.1071 86.702 41.1313 91.4059C40.5582 94.1688 39.7725 96.1691 38.3745 98.4238C37.9834 99.0545 38.1962 99.4408 41.241 103.629C43.05 106.117 44.654 108.381 44.8052 108.66C45.1519 109.301 45.9538 109.007 46.3471 108.096C46.558 107.608 46.4365 106.426 45.9283 104.021C44.8245 98.7969 44.8994 93.3603 46.1433 88.3716C46.7177 86.0678 47.4363 84.0251 47.9719 83.1735C49.0449 81.4674 48.9393 80.864 46.8121 76.5484C42.4209 67.6403 33.3203 59.8986 20.1885 53.9006C12.8926 50.5683 10.424 49.1701 5.93152 45.8266C3.55773 44.0597 1.44739 42.5475 1.24204 42.4663C0.976732 42.361 0.741559 43.4644 0.431827 46.2668ZM74.0888 66.579C73.8325 66.6435 72.5752 66.8732 71.2947 67.0893C68.5767 67.5485 63.9487 69.4203 61.7809 70.9373C58.7935 73.0282 55.1299 76.479 53.703 78.5458C51.8409 81.2432 49.5099 85.879 48.5721 88.7511C47.9044 90.7948 47.8392 91.5244 47.8544 96.7793C47.8706 102.41 47.8967 102.636 48.8541 105.517C52.0409 115.107 57.07 121.19 64.7309 124.722C69.6742 127.001 71.7361 127.454 77.2302 127.468C85.4715 127.489 92.1881 124.527 97.9319 118.338C106.613 108.985 108.71 95.7931 103.326 84.4159C101.801 81.1947 100.255 78.8377 97.9975 76.2905C92.3788 69.9521 86.164 66.9464 77.9721 66.6044C76.0926 66.526 74.3451 66.5148 74.0888 66.579ZM71.6035 71.5568C68.1135 72.3272 66.2585 73.093 63.6591 74.8355C59.2716 77.777 56.6468 80.9044 54.3299 85.9519C52.6414 89.6294 51.9779 92.6624 51.9608 96.7793C51.9381 102.267 53.3252 107.002 56.3663 111.818C59.7084 117.109 64.4936 120.593 70.8268 122.343C74.4156 123.335 80.1629 123.348 83.4991 122.37C91.0399 120.161 96.8089 114.931 99.8484 107.547C103.044 99.7844 102.174 90.0055 97.6418 82.7573C96.1978 80.4481 93.1971 77.1203 91.1747 75.585C85.794 71.5006 78.5819 70.0163 71.6035 71.5568ZM59.4065 80.5451C57.0998 83.1969 54.6688 89.1111 55.2464 90.6666C55.3644 90.9842 55.7058 91.1625 56.0802 91.1018C56.5692 91.0225 56.9199 90.3828 57.6152 88.3016C58.568 85.4496 59.9986 83.0271 61.7893 81.2333L62.8729 80.1472L62.1409 79.5522C61.7383 79.2246 61.2692 78.9568 61.0983 78.9568C60.9275 78.9568 60.166 79.6716 59.4065 80.5451ZM67.7534 79.7673C66.2551 80.2997 65.553 80.9754 64.7782 82.6298C63.4805 85.4008 63.6387 89.4438 65.2479 94.6409C66.3908 98.3326 66.083 98.1534 69.7435 97.26C71.478 96.8368 73.1301 96.3143 73.4146 96.0995C73.8505 95.77 73.9499 94.911 74.0447 90.6532C74.168 85.1224 73.9418 83.7557 72.5777 81.7939C71.1785 79.7818 69.59 79.1148 67.7534 79.7673ZM84.4441 86.3819C83.3497 86.7004 82.167 88.0016 81.157 89.9984C80.6298 91.0401 80.462 92.0346 80.3657 94.692C80.257 97.6858 80.6432 102.537 81.0209 102.928C81.098 103.008 82.6612 103.456 84.4948 103.925C88.4411 104.935 88.2159 105.067 89.5359 100.96C90.2492 98.741 90.366 97.8297 90.3812 94.3708C90.4008 89.8552 90.1029 88.9435 88.0687 87.2968C86.7716 86.2467 85.7735 85.9949 84.4441 86.3819ZM70.8833 100.168C69.0349 100.654 67.4766 101.101 67.4201 101.163C67.3635 101.225 67.6403 102.428 68.0352 103.837C68.8948 106.904 70.0017 108.179 71.8048 108.179C73.2531 108.179 74.8403 107.157 75.3445 105.899C75.7803 104.811 75.4591 102.154 74.6654 100.281L74.2441 99.2863L70.8833 100.168ZM14.2421 104.997C16.2257 108.734 19.8167 113.402 24.2272 117.975C27.6668 121.542 29.4597 123.102 32.7999 125.432C48.7032 136.529 67.5617 140.927 85.428 137.705C90.9206 136.715 97.4858 134.53 103.2 131.791L106.682 130.122L105.297 128.718C104.536 127.945 103.913 127.122 103.913 126.888C103.913 126.022 103.036 126.18 100.171 127.56C94.404 130.339 87.3352 132.416 80.8227 133.245C77.0308 133.728 67.9982 133.478 63.7064 132.77C54.5545 131.263 45.193 127.724 38.0042 123.054C34.2209 120.596 31.5762 118.41 27.1241 114.06C24.9429 111.93 22.6161 110.007 21.1022 109.084C18.4985 107.497 17.3702 106.656 14.7572 104.355L13.1498 102.939L14.2421 104.997ZM79.4412 108.513C78.6941 111.588 78.8954 112.847 80.335 114.1C81.5267 115.136 83.3876 115.211 84.6613 114.273C85.5591 113.613 86.5508 111.362 86.9509 109.078C87.1581 107.895 87.1528 107.887 85.8275 107.535C84.4942 107.181 81.5208 106.349 80.5754 106.065C80.1734 105.945 79.9454 106.437 79.4412 108.513ZM103.27 115.135C102.037 116.873 100.876 118.495 100.689 118.74C100.422 119.089 100.78 119.586 102.364 121.062C103.472 122.095 104.538 122.943 104.733 122.946C105.173 122.952 108.34 119.446 109.424 117.753C109.88 117.041 110.103 116.396 109.943 116.255C109.787 116.119 108.726 115.101 107.586 113.992L105.512 111.976L103.27 115.135ZM112.439 118.121C111.714 118.425 109.077 121.325 107.237 123.844L105.997 125.541L106.741 126.377C107.151 126.838 108.236 127.83 109.155 128.583L110.825 129.951L114.15 126.135L117.476 122.319L115.327 120.066C114.145 118.827 113.155 117.822 113.127 117.833C113.1 117.844 112.79 117.974 112.439 118.121ZM117.014 125.921C113.65 129.511 112.3 131.244 112.3 131.974C112.3 132.579 118.173 138.707 122.774 142.904C124.007 144.028 128.131 147.988 131.939 151.703C135.747 155.418 139.331 158.798 139.905 159.215C141.891 160.658 145.037 160.074 147.686 157.77C149.349 156.324 150.389 153.689 149.862 152.256C149.385 150.959 147.976 149.492 138.909 140.851C134.27 136.43 128.937 131.269 127.057 129.381C122.599 124.904 120.727 123.272 120.049 123.272C119.746 123.272 118.38 124.464 117.014 125.921Z" fill="white"/>
</svg>
